<?xml version="1.0" encoding="utf-8"?>
<!-- Generator: Adobe Illustrator 24.0.0, SVG Export Plug-In . SVG Version: 6.00 Build 0)  -->
<svg version="1.1" id="Capa_1" xmlns="http://www.w3.org/2000/svg" xmlns:xlink="http://www.w3.org/1999/xlink" x="0px" y="0px"
	 viewBox="0 0 24 24" style="enable-background:new 0 0 24 24;" xml:space="preserve">
<path d="M0.1,24l1.7-6.2c-1-1.8-1.6-3.8-1.6-5.9C0.2,5.3,5.5,0,12,0c3.2,0,6.2,1.2,8.4,3.5c2.2,2.2,3.5,5.2,3.5,8.4
	c0,6.6-5.3,11.9-11.9,11.9c-2,0-4-0.5-5.7-1.4C6.4,22.3,0.1,24,0.1,24z M6.3,21.3c1.9,1.1,3.4,1.6,5.7,1.6c6.1,0,11-4.9,11-11
	c0-6.1-4.9-11-11-11c-6.1,0-11,4.9-11,11c0,2.5,0.5,3.9,1.7,5.9l-1.5,5C1.3,22.8,6.3,21.3,6.3,21.3z"/>
<path d="M15.1,17.2c-0.4,0-0.7-0.1-1-0.2c-0.4-0.1-1-0.3-1.7-0.6c-2.3-1-4-3.1-4.9-4.3l-0.1-0.1c-0.3-0.4-1.1-1.6-1.1-2.8
	C6.4,8,7,7.4,7.3,7.1c0.3-0.3,0.5-0.3,0.6-0.3l0.7,0c0,0,0.1,0,0.2,0.3L9,7.8c0.3,0.7,0.6,1.4,0.6,1.5c0.1,0.1,0,0.1,0,0.2l0,0.1
	C9.5,9.7,9.5,9.8,9.4,9.9l-0.2,0.2c-0.1,0.1-0.2,0.2-0.3,0.3c-0.1,0.1-0.5,0.5-0.2,1.1c0.2,0.4,0.8,1.4,1.7,2.2
	c1,0.9,1.9,1.3,2.3,1.5c0.1,0,0.1,0.1,0.2,0.1c0.2,0.1,0.3,0.1,0.5,0.1c0.2,0,0.4-0.1,0.6-0.3c0.1-0.2,0.8-0.9,1-1.2c0,0,0,0,0.1,0
	c0,0,0.1,0,0.1,0c0.2,0.1,1.5,0.7,2,0.9l0.2,0.1c0.1,0,0.2,0.1,0.3,0.1c0,0,0,0.5-0.2,1c-0.2,0.5-1.2,1.1-1.7,1.2
	C15.6,17.2,15.4,17.2,15.1,17.2L15.1,17.2z"/>
</svg>
