<?xml version="1.0" encoding="utf-8"?>
<!-- Generator: Adobe Illustrator 24.0.0, SVG Export Plug-In . SVG Version: 6.00 Build 0)  -->
<svg version="1.1" id="Capa_1" xmlns="http://www.w3.org/2000/svg" xmlns:xlink="http://www.w3.org/1999/xlink" x="0px" y="0px"
	 viewBox="0 0 24 24" style="enable-background:new 0 0 24 24;" xml:space="preserve">
<path d="M12,1.3c3.5,0,3.9,0,5.3,0.1c3.5,0.2,5.2,1.8,5.4,5.4c0.1,1.4,0.1,1.8,0.1,5.3c0,3.5,0,3.9-0.1,5.3
	c-0.2,3.5-1.8,5.2-5.4,5.4c-1.4,0.1-1.8,0.1-5.3,0.1c-3.5,0-3.9,0-5.3-0.1c-3.6-0.2-5.2-1.9-5.4-5.4c-0.1-1.4-0.1-1.8-0.1-5.3
	c0-3.5,0-3.9,0.1-5.3c0.2-3.5,1.8-5.2,5.4-5.4C8.1,1.3,8.5,1.3,12,1.3z M12,0C8.7,0,8.3,0,7.1,0.1c-4.4,0.2-6.8,2.6-7,7
	C0,8.3,0,8.7,0,12s0,3.7,0.1,4.9c0.2,4.4,2.6,6.8,7,7C8.3,24,8.7,24,12,24s3.7,0,4.9-0.1c4.4-0.2,6.8-2.6,7-7C24,15.7,24,15.3,24,12
	s0-3.7-0.1-4.9c-0.2-4.4-2.6-6.8-7-7C15.7,0,15.3,0,12,0z M12,5.8c-3.4,0-6.2,2.8-6.2,6.2s2.8,6.2,6.2,6.2s6.2-2.8,6.2-6.2
	C18.2,8.6,15.4,5.8,12,5.8z M12,17.1c-2.8,0-5.1-2.3-5.1-5.1c0-2.8,2.3-5.1,5.1-5.1s5.1,2.3,5.1,5.1C17.1,14.8,14.8,17.1,12,17.1z
	 M18.6,4.4c-0.6,0-1,0.4-1,1s0.4,1,1,1c0.6,0,1-0.4,1-1S19.1,4.4,18.6,4.4z"/>
</svg>
